<svg xmlns="http://www.w3.org/2000/svg" viewBox="0 0 16 16" width="16" height="16">
  <defs>
    <linearGradient id="brainGrad" x1="0%" y1="0%" x2="100%" y2="100%">
      <stop offset="0%" style="stop-color:#00d4ff;stop-opacity:1" />
      <stop offset="100%" style="stop-color:#0891b2;stop-opacity:1" />
    </linearGradient>
  </defs>
  <rect width="16" height="16" rx="3" fill="#0a1628"/>
  <!-- Brain outline -->
  <path d="M8 2.5C5.5 2.5 3.5 4.2 3.5 6.5c0 1 .4 1.9 1 2.5-.3.4-.5 1-.5 1.5 0 1.4 1.1 2.5 2.5 2.5h3c1.4 0 2.5-1.1 2.5-2.5 0-.5-.2-1.1-.5-1.5.6-.6 1-1.5 1-2.5 0-2.3-2-4-4.5-4z" fill="url(#brainGrad)" opacity="0.9"/>
  <!-- Neural connections -->
  <circle cx="6" cy="6" r="0.8" fill="#fff" opacity="0.9"/>
  <circle cx="10" cy="6" r="0.8" fill="#fff" opacity="0.9"/>
  <circle cx="8" cy="8.5" r="0.8" fill="#fff" opacity="0.9"/>
  <circle cx="6.5" cy="10.5" r="0.6" fill="#fff" opacity="0.7"/>
  <circle cx="9.5" cy="10.5" r="0.6" fill="#fff" opacity="0.7"/>
  <!-- Connection lines -->
  <path d="M6 6.8L8 8.5M10 6.8L8 8.5M6.5 10.5L8 8.5M9.5 10.5L8 8.5" stroke="#fff" stroke-width="0.5" opacity="0.6"/>
</svg>
