<svg xmlns="http://www.w3.org/2000/svg" width="95" height="83" fill="none" viewBox="0 0 95 83">
  <defs>
    <linearGradient id="brainiacGrad" x1="47.5" x2="47.5" y1="0" y2="82.409" gradientUnits="userSpaceOnUse">
      <stop offset="0%" stop-color="#67e8f9"/>
      <stop offset="20%" stop-color="#22d3ee"/>
      <stop offset="40%" stop-color="#06b6d4"/>
      <stop offset="60%" stop-color="#0891b2"/>
      <stop offset="80%" stop-color="#0e7490"/>
      <stop offset="100%" stop-color="#155e75"/>
    </linearGradient>
    <filter id="glow" x="-50%" y="-50%" width="200%" height="200%">
      <feGaussianBlur stdDeviation="2" result="coloredBlur"/>
      <feMerge>
        <feMergeNode in="coloredBlur"/>
        <feMergeNode in="SourceGraphic"/>
      </feMerge>
    </filter>
  </defs>
  
  <!-- Hexagonal background -->
  <g filter="url(#glow)">
    <path fill="url(#brainiacGrad)" d="M66.657 0H28.343a7.948 7.948 0 0 0-6.887 3.979L2.288 37.235a7.948 7.948 0 0 0 0 7.938L21.456 78.43a7.948 7.948 0 0 0 6.887 3.979h38.314a7.948 7.948 0 0 0 6.886-3.98l19.17-33.256a7.948 7.948 0 0 0 0-7.938L73.542 3.98A7.948 7.948 0 0 0 66.657 0Z"/>
  </g>
  
  <!-- AI Brain Icon -->
  <g transform="translate(27, 18)">
    <!-- Brain shape -->
    <path fill="#fff" fill-opacity="0.95" d="M20.5 5C13 5 7 11 7 18c0 3.5 1.4 6.5 3.5 8.5-1 1.5-1.5 3.2-1.5 5 0 5 4 9 9 9h4c5 0 9-4 9-9 0-1.8-.5-3.5-1.5-5 2.1-2 3.5-5 3.5-8.5 0-7-6-13-13.5-13z"/>
    
    <!-- Neural nodes -->
    <circle cx="15" cy="16" r="2.5" fill="#0891b2"/>
    <circle cx="26" cy="16" r="2.5" fill="#0891b2"/>
    <circle cx="20.5" cy="25" r="2.5" fill="#0891b2"/>
    <circle cx="14" cy="33" r="2" fill="#0891b2"/>
    <circle cx="27" cy="33" r="2" fill="#0891b2"/>
    
    <!-- Neural connections -->
    <path stroke="#0891b2" stroke-width="1.5" stroke-linecap="round" d="M15 18.5L20.5 25M26 18.5L20.5 25M14 33L20.5 25M27 33L20.5 25" opacity="0.8"/>
    
    <!-- Pulse effect circles -->
    <circle cx="20.5" cy="25" r="4" fill="none" stroke="#fff" stroke-width="0.5" opacity="0.4"/>
    <circle cx="20.5" cy="25" r="6" fill="none" stroke="#fff" stroke-width="0.3" opacity="0.2"/>
  </g>
</svg>
